<svg width="32px" height="32px" viewBox="0 0 32 32" xmlns="http://www.w3.org/2000/svg">
  <g id="Lager_2" data-name="Lager 2" transform="translate(0 0)">
    <g id="Group_1" data-name="Group 1">
      <path id="Path_2" data-name="Path 2" d="M30.02,20h-.04A1.979,1.979,0,0,0,28,21.98V27a1,1,0,0,1-1,1H5a1,1,0,0,1-1-1V5A1,1,0,0,1,5,4h9.02A1.979,1.979,0,0,0,16,2.02V1.98A1.979,1.979,0,0,0,14.02,0H1.98A1.979,1.979,0,0,0,0,1.98V30.02A1.979,1.979,0,0,0,1.98,32H30.02A1.979,1.979,0,0,0,32,30.02L31.98,30H32V21.98A1.979,1.979,0,0,0,30.02,20Z" fill="#100a0b"/>
      <path id="Path_3" data-name="Path 3" d="M24.944,5.712c-5.679.405-10.051,2.269-13.013,5.561a15.421,15.421,0,0,0-3.868,9.352,2.124,2.124,0,0,0,2.111,2.361l.1-.01a1.949,1.949,0,0,0,1.732-1.809,12.177,12.177,0,0,1,2.929-7.251c2.207-2.432,5.593-3.831,10.066-4.19V10h-.056l-.043.268L22.6,12.6a2.017,2.017,0,0,0,0,2.833,1.969,1.969,0,0,0,2.807,0l6.016-6.074a2.018,2.018,0,0,0,0-2.834l-6-5.933a1.97,1.97,0,0,0-2.806,0,2.016,2.016,0,0,0,0,2.834Z" fill="#100a0b"/>
    </g>
  </g>
</svg>
